<?xml version="1.0" standalone="no"?><!DOCTYPE svg PUBLIC "-//W3C//DTD SVG 1.1//EN" "http://www.w3.org/Graphics/SVG/1.1/DTD/svg11.dtd"><svg t="1699429646764" class="icon" viewBox="0 0 1467 1024" version="1.1" xmlns="http://www.w3.org/2000/svg" p-id="3436" xmlns:xlink="http://www.w3.org/1999/xlink" width="286.5234375" height="200"><path d="M726.2208 429.056c-209.373867 0-317.474133 127.488-337.066667 281.2928-19.797333 153.668267-73.591467 281.122133 337.066667 281.122133 410.8288 0 356.864-127.453867 337.066667-281.122133-19.490133-153.8048-127.726933-281.258667-337.066667-281.258667z" fill="#1296DB" p-id="3437"></path><path d="M1454.523733 675.157333c-17.544533-134.621867-113.664-246.101333-299.793066-246.101333a348.228267 348.228267 0 0 0-140.0832 27.5456c68.266667 59.118933 113.0496 142.7456 126.020266 245.691733l4.881067 34.304c8.8064 59.8016 18.056533 125.610667-9.489067 184.183467 6.4512 0.136533 11.9808 0.443733 18.670934 0.443733 365.226667 0 317.3376-111.547733 299.793066-246.101333zM12.117333 689.834667C29.696 555.2128 125.781333 443.733333 311.978667 443.733333a348.228267 348.228267 0 0 1 140.0832 27.579734c-68.3008 59.0848-113.083733 142.711467-126.0544 245.691733l-4.846934 34.304c-8.8064 59.8016-18.090667 125.610667 9.489067 184.149333-6.485333 0.170667-12.014933 0.477867-18.670933 0.477867-365.226667 0-317.3376-111.547733-299.8272-246.101333z" fill="#2AA515" p-id="3438"></path><path d="M726.152533 390.587733A194.901333 194.901333 0 1 0 726.254933 0.8192a194.901333 194.901333 0 0 0-0.1024 389.802667z" fill="#1296DB" p-id="3439"></path><path d="M1154.8672 390.587733a155.989333 155.989333 0 0 0 155.989333-155.8528 155.989333 155.989333 0 0 0-311.773866 0 155.716267 155.716267 0 0 0 155.784533 155.8528zM326.4512 408.302933a155.989333 155.989333 0 0 0 155.989333-155.8528 155.989333 155.989333 0 0 0-311.773866 0 155.716267 155.716267 0 0 0 155.784533 155.8528z" fill="#2AA515" p-id="3440"></path></svg>