<?xml version="1.0" standalone="no"?><!DOCTYPE svg PUBLIC "-//W3C//DTD SVG 1.1//EN" "http://www.w3.org/Graphics/SVG/1.1/DTD/svg11.dtd"><svg t="1654260953765" class="icon" viewBox="0 0 1024 1024" version="1.1" xmlns="http://www.w3.org/2000/svg" p-id="15816" xmlns:xlink="http://www.w3.org/1999/xlink" width="200" height="200"><defs><style type="text/css"></style></defs><path d="M396.258009 605.507412a8.831735 8.831735 0 0 0-1.70052-7.314066 10.696822 10.696822 0 0 0-6.948363-4.479866c-117.079916-28.1043-197.607786-71.604709-241.547039-130.519513-28.561429-46.115188-29.256265-83.910626-2.084509-113.368027 18.285166-16.730927 36.46062-21.357074 54.562934-13.860156 16.950349 7.240926 24.575263 18.321736 22.893028 33.224146-3.36447 8.31975-7.643199 13.750445-12.872757 16.292083-4.041022 1.462813-9.471716 0.914258-16.273797-1.718806-3.547322-3.455896-5.759827-6.527804-6.655801-9.234009-0.219422-2.413642 0.56684-4.223873 2.358787-5.467264a10.769963 10.769963 0 0 0 2.651349-6.838652 11.263662 11.263662 0 0 0-3.3279-6.948363 12.945897 12.945897 0 0 0-7.533489-2.559923 11.665936 11.665936 0 0 0-7.350636 2.596493c-6.546089 6.216956-8.941446 13.20189-7.167785 20.99137 1.151965 7.003218 6.180386 14.299 15.048691 21.887344 0.767977 0.676551 1.828517 1.279962 3.181619 1.755376 13.988152 6.107245 25.964935 6.6558 35.948636 1.645665 9.087727-3.437611 16.072661-12.031639 20.936515-25.782084 0.53027-0.53027 0.822832-1.042254 0.859402-1.499384 4.38844-24.959251-7.332351-43.482124-35.217229-55.568618-26.367209-11.903643-52.222433-6.253527-77.547388 16.986919a1.572524 1.572524 0 0 0-0.255992 0.676551c-34.19326 35.619503-34.028693 80.710722 0.475414 135.310226 0.219422 0.146281 0.310848 0.329133 0.292563 0.548555 46.188329 63.559236 131.28749 110.222979 255.260914 139.991229 2.998767 0.548555 5.576976 0.109711 7.734625-1.316532 2.596494-1.042254 4.022736-2.852486 4.297014-5.430694" fill="#D95918" p-id="15817"></path><path d="M680.519196 506.164107c-19.473702-11.336803-31.4322-27.793452-35.89378-49.406518-4.790713-21.649636-0.932543-42.092452 11.592795-61.328446a85.684287 85.684287 0 0 1 52.752703-37.045746c22.161621-5.503835 42.896999-2.79763 62.169563 8.136899 18.961717 11.519654 30.810504 27.903163 35.528077 49.187096 4.479866 21.503355 0.511985 41.87303-11.885357 61.109024-12.781331 19.217709-30.243664 31.578481-52.423571 37.082316-22.435898 5.723257-43.04328 3.145049-61.84043-7.734625m-68.98993-135.383368c-20.150253 31.139637-26.44035 64.180932-18.906862 99.050743 7.442062 34.7601 26.787768 61.255305 58.037116 79.522186 30.755649 18.321736 64.327213 22.856457 100.714693 13.604163 36.131487-9.142583 64.400354-29.457402 84.824884-60.926172 20.4611-30.755649 26.915764-63.522666 19.36399-98.301051-7.533488-34.997807-26.806053-61.621009-57.817694-79.851319-31.231063-18.358306-64.820913-22.856457-100.751263-13.439596-36.570331 9.106013-65.076905 29.219695-85.464864 60.341046" fill="#FFC34C" p-id="15818"></path><path d="M644.625416 456.757589c4.46158 21.631351 16.420079 38.088 35.89378 49.406518 18.79715 10.879674 39.404532 13.457882 61.84043 7.734625 22.179906-5.503835 39.642239-17.864607 52.405285-37.082316 12.415628-19.235994 16.383508-39.623954 11.903643-61.109024-4.717573-21.283933-16.56636-37.667441-35.546362-49.187096-19.25428-10.934529-39.989657-13.640734-62.169563-8.136899a85.684287 85.684287 0 0 0-52.734418 37.045746c-12.525339 19.235994-16.383508 39.67881-11.592795 61.328446" fill="#FFFEC5" p-id="15819"></path><path d="M519.189179 229.253557c-14.628133-36.936035-40.081083-64.400354-76.322282-82.338102-35.765784-17.901177-71.67785-20.717093-107.791052-8.484317-35.838925 11.921928-61.218735 35.144089-76.194286 69.684767-14.847555 34.686959-14.792699 70.61731 0.182852 107.827622 14.701273 36.350909 40.044513 63.504381 76.066289 81.423843 36.003491 17.791466 71.915557 20.790233 107.736197 8.996302 36.058347-11.885358 61.456442-35.180659 76.194286-69.849333 15.194973-34.522393 15.249828-70.288177 0.127996-107.260782" fill="#FFC34C" p-id="15820"></path><path d="M470.751775 311.116244c9.197438-21.137652 9.325435-43.152991 0.402273-66.064304a98.319336 98.319336 0 0 0-47.066016-50.741335c-22.381043-10.550541-44.560949-12.251061-66.558004-5.046706-22.08848 6.948363-37.868578 21.210792-47.340294 42.787288-9.142583 21.722777-9.215724 43.811257-0.237707 66.265441 9.38029 22.966168 25.233529 39.953087 47.578001 50.960757 22.125051 10.641966 44.250101 12.251061 66.393437 4.845568 21.997054-7.076359 37.594301-21.393644 46.82831-43.006709" fill="#FFFEC5" p-id="15821"></path><path d="M890.001703 510.9103c-10.716368 1.024813-19.514189 5.487189-26.364737 13.463692C847.026763 543.165223 823.879512 555.054954 794.217221 560.008725a37.210312 37.210312 0 0 0-25.513591 15.336582 39.038829 39.038829 0 0 0-6.727659 28.673539c1.822058 10.653075 6.989772 19.21247 15.519414 25.698281 8.688447 6.024469 18.245347 8.334337 28.6707 6.929605 50.337755-8.370002 89.016241-28.960202 116.069917-61.748592 7.10989-8.169875 10.159609-17.593856 9.149158-28.271942A36.881179 36.881179 0 0 0 918.065966 520.111174 36.515476 36.515476 0 0 0 890.001703 510.9103" fill="#F7872E" p-id="15822"></path><path d="M867.155883 517.793472a16.639501 16.639501 0 0 0-12.251061-6.454664 15.322969 15.322969 0 0 0-12.287632 4.205589c-3.437611 3.474181-5.302698 7.826051-5.631831 13.147034a21.942199 21.942199 0 0 0 5.229558 14.262429c3.309615 4.278729 7.314066 6.6558 11.995068 7.1495a15.194973 15.194973 0 0 0 12.196206-4.95528c3.419326-3.3279 5.302698-7.698055 5.631831-13.128749a22.728461 22.728461 0 0 0-4.882139-14.225859" fill="#F7872E" p-id="15823"></path><path d="M799.884758 621.872635c28.853992-74.658332 25.87351-151.401172-8.904876-230.265092-34.888096-79.101627-93.162919-130.848646-174.879325-155.241057-81.826117-24.2827-159.903774-17.334337-234.269543 20.808519-74.694902 38.124571-122.43747 89.90816-143.245989 155.314197-20.680522 65.424323-12.507053 134.121691 24.538693 206.073818 36.936035 72.080123 96.582245 122.547181 179.011772 151.401173 81.954113 28.689425 154.875354 29.877961 218.763723 3.565607 63.540951-26.220928 109.857276-76.779411 138.96726-151.657165" fill="#FDD264" p-id="15824"></path><path d="M487.263279 242.784579a79.010201 79.010201 0 0 0-28.14087-8.484317c-10.239693-1.316532-18.742295-0.786262-25.471236 1.59081-6.162101 2.322216-8.630598 5.686687-7.442062 10.093411 0.731407 4.242158 5.302698 8.594028 13.677304 13.019038 8.301465 4.205588 17.553759 6.893507 27.830022 8.100329 10.568826 1.590809 19.107998 1.225106 25.599232-1.06054 6.418093-2.651349 9.014587-6.05239 7.807766-10.221408-1.151965-4.754143-5.778112-9.106013-13.860156-13.037323" fill="#FFA3A3" p-id="15825"></path><path d="M662.855726 330.553375a181.809403 181.809403 0 0 1-8.045473-4.223873c-49.735651-25.544377-96.819953-38.398848-141.289476-38.563415-43.939253 0.365703-72.28126 13.494452-85.02602 39.367962-12.799616 25.142103-6.143816 55.477193 19.985686 91.023555 26.275783 36.259484 64.363783 67.051703 114.209145 92.358372 2.340501 1.316532 4.754143 2.523353 7.22264 3.620463 41.013627 19.638268 80.454729 28.415148 118.305023 26.330638 40.227365-1.956513 67.453976-17.316052 81.69812-46.115188 14.628133-29.128269 10.532255-58.658812-12.287631-88.609913-23.67929-28.524859-55.276056-53.575536-94.772014-75.188601" fill="#FFFED6" p-id="15826"></path><path d="M786.079458 394.478314c-6.180386-4.205588-11.885358-6.491234-17.188056-6.802081-5.357554-0.548555-8.77688 0.731407-10.312834 3.913025-1.407958 3.401041-0.457129 7.67977 2.925627 12.781331 3.218189 5.083276 7.935762 9.727708 14.079578 13.951581 6.308382 4.095877 12.196206 6.454664 17.681755 7.021504 5.156417 0.420559 8.484317-0.895973 9.9837-3.949596 1.645665-3.25476 0.786262-7.570059-2.541638-12.909327a53.246403 53.246403 0 0 0-14.628132-14.006437" fill="#FFA3A3" p-id="15827"></path><path d="M492.108848 308.373469c3.657033 0.018285 5.028421-1.261676 4.114163-3.839885-44.688945-26.202642-88.31735-38.161141-130.921787-35.875495 44.615804 1.023969 86.872822 14.262429 126.807624 39.71538M501.763416 288.899767c2.633064 0.731407 4.223873-0.329133 4.772428-3.254759-30.828789-34.485823-65.113475-55.257771-102.854057-62.29756 38.380563 11.04424 71.074439 32.895013 98.081629 65.552319M481.210889 334.649252c2.76106-0.53027 3.967881-1.938228 3.620463-4.242158-40.867345-18.778865-80.180452-23.569579-117.975889-14.353856 39.367962-6.198671 77.474247 0 114.355426 18.614299" fill="#663301" p-id="15828"></path><path d="M334.49072 285.389015a36.588617 36.588617 0 0 0-23.405012-17.974317 37.045746 37.045746 0 0 0-29.475688 4.022736c-9.179153 5.467265-15.030406 13.348171-17.517188 23.661004-11.665936 42.494725-8.24661 87.457948 10.239692 134.889668 4.022736 10.166552 10.934529 17.261196 20.790234 21.265648 9.691138 4.333584 19.437131 4.644432 29.27455 0.932543 10.093411-3.931311 17.188056-10.843103 21.302218-20.753663a39.605669 39.605669 0 0 0 0.658266-29.859675c-12.214491-30.755649-14.847555-59.719351-7.862621-86.891108a38.01486 38.01486 0 0 0-4.004451-29.292836" fill="#F7872E" p-id="15829"></path><path d="M340.360258 344.102683c3.89474-3.29133 6.399808-7.478633 7.515203-12.580194a16.273798 16.273798 0 0 0-2.633064-13.640734 15.725243 15.725243 0 0 0-11.848787-6.765511 17.334337 17.334337 0 0 0-13.220175 4.479865 21.210792 21.210792 0 0 0-8.063758 12.70819c-0.895973 5.119846 0.03657 9.691138 2.815915 13.659019a16.090946 16.090946 0 0 0 11.702506 6.58266c4.936995 0.274277 9.508286-1.206821 13.73216-4.443295" fill="#F7872E" p-id="15830"></path><path d="M657.937016 320.05769c-3.876455-0.182852-7.003218 0.457129-9.398575 1.865087a11.00767 11.00767 0 0 0-2.26736 9.745993c1.590809 8.484317 6.58266 16.127516 14.93898 22.947883l0.146281 0.365703 0.694837 0.073141a28.524859 28.524859 0 0 0 23.075879-2.19422 13.896726 13.896726 0 0 0 6.271812-7.551773 16.072661 16.072661 0 0 0-2.139365-8.228325 33.205861 33.205861 0 0 0-11.793932-10.861388l0.036571-0.365704-0.347419-0.03657a48.894533 48.894533 0 0 0-19.199424-5.759827" fill="#663300" p-id="15831"></path><path d="M754.830109 339.860524l0.036571-0.53027a4.863854 4.863854 0 0 0-1.005684-2.249075c-2.486783-2.15765-8.191754-3.931311-17.133201-5.357554a73.049237 73.049237 0 0 0-12.507053-0.60341c-9.691138 0.182852-16.639501 1.225106-20.863374 3.163334-0.639981 0.53027-0.877688 0.969114-0.676551 1.353102 0.146281 0.841118 0.987399 1.773661 2.559923 2.742775 3.986166-0.987399 10.001986-1.609095 18.047459-1.828517 9.142583-0.457129 19.656553 0.639981 31.523625 3.309615" fill="#522C17" p-id="15832"></path><path d="M731.845656 337.812586a48.711682 48.711682 0 0 0-4.333584-0.987399c-9.197438-2.285646-16.438364-3.035338-21.704492-2.285646-0.969114 0.255992-1.462813 0.60341-1.535954 1.09711-0.786262 0.731407-0.402274 1.66395 1.133681 2.779345 4.333584 0.219422 10.715107 1.298247 19.126283 3.25476 4.260444 0.914258 8.959731 2.377072 14.061292 4.333584-0.03657-2.980482-2.285646-5.704972-6.765511-8.191754M534.256155 225.267391l-0.127996 1.225106c23.697575 11.409943 41.543897 22.856457 53.575536 34.321256 11.793932 11.227092 19.89426 19.930831 24.31927 26.092931 3.199904 1.042254 5.266128 1.09711 6.198671 0.109711 0.60341-0.182852-0.182852-2.340501-2.340501-6.472948-2.505068-4.205588-8.118614-10.788248-16.858923-19.78455a136.84618 136.84618 0 0 0-26.147787-20.735378c-16.986919-9.032872-28.506573-13.988152-34.558963-14.865839-1.828517-0.420559-3.181619-0.383988-4.059307 0.109711" fill="#522C17" p-id="15833"></path><path d="M614.491462 281.987975c-7.22264-7.643199-18.376592-15.46925-33.461853-23.478153-11.428229-5.704972-16.401794-5.156417-14.86584 1.645665 5.668401 2.377072 11.025955 5.083276 16.145802 8.118613 13.677304 7.862621 23.807286 14.317285 30.353375 19.400561 3.29133 0.109711 4.607862-0.585125 3.931311-2.066224 0.109711-1.06054-0.585125-2.267361-2.102795-3.620462" fill="#522C17" p-id="15834"></path><path d="M701.291144 539.955093c6.436378-58.658812-19.199424-102.780917-76.907407-132.402885-76.395422-36.680042-128.855563-25.891795-157.343851 32.346458 29.585398 50.357346 64.857483 86.01342 105.816254 106.968219 49.918502 22.801602 92.742361 20.515956 128.435004-6.911792" fill="#FFFDD6" p-id="15835"></path><path d="M699.243206 529.934822c-14.225859-31.011641-31.267633-50.393917-51.180179-58.183397a58.238253 58.238253 0 0 0-28.762566-3.455897 144.379669 144.379669 0 0 0-28.433433-26.348924c-30.37166-20.936515-65.863167-24.794685-106.437949-11.592795 9.197438 44.286671 42.092452 80.637581 98.703324 109.071014 46.078618 17.114915 84.770028 13.951581 116.110803-9.490001" fill="#FF7884" p-id="15836"></path><path d="M608.896202 407.424212c-9.471716-3.053623-17.407478-2.212505-23.862141 2.486782-6.05239 7.204355-4.114162 17.882892 5.851253 32.03561a144.306528 144.306528 0 0 1 28.415147 26.348924 58.201683 58.201683 0 0 1 28.762566 3.455897c8.118614-2.596494 14.079578-6.911793 17.919462-12.927613 3.401041-8.758594-0.402274-16.968634-11.391658-24.648403-7.954047-4.571291-15.231543-4.681002-21.832488-0.310848-4.315299-12.598479-12.251061-21.393644-23.862141-26.440349" fill="#891C2C" p-id="15837"></path><path d="M624.859151 391.954961a19.25428 19.25428 0 0 1-9.032871-10.294548c-1.151965-4.973565-0.073141-10.020271 3.199904-15.176688a533.46971 533.46971 0 0 0-91.370974-28.561428c-18.72401-4.626147-31.596766 1.444528-38.61827 18.212025-7.75291 26.824338-9.288864 51.564167-4.607861 74.219487 40.593068-13.20189 76.066289-9.34372 106.437949 11.592795-9.94713-14.152718-11.885358-24.831255-5.832967-32.03561 6.454664-4.699288 14.408711-5.540405 23.862141-2.486782 11.592795 5.046706 19.565127 13.84187 23.862141 26.440349 6.58266-4.38844 13.878441-4.278729 21.832488 0.310848 10.989385 7.67977 14.810984 15.908094 11.391658 24.648403-3.839885 6.034105-9.800849 10.331119-17.919462 12.927613 19.89426 7.771195 36.95432 27.171756 51.161893 58.183397 17.681755-13.256745 33.004724-32.949869 45.987192-59.115941 7.131215-16.420079 1.901657-29.987672-15.688672-40.721064a511.125238 511.125238 0 0 0-53.941239-35.656073l-6.271812 12.488768c-2.687919 3.017052-5.595261 3.913025-8.685453 2.687919a142.715719 142.715719 0 0 1-35.765785-17.66347" fill="#CE443B" p-id="15838"></path><path d="M654.938249 383.178082c-2.779345 6.180386-6.765511 10.971099-11.921928 14.33557 2.889056-5.192987 3.547322-11.61108 2.011368-19.272565-8.575743-4.132447-17.242911-8.045473-26.001505-11.757362-3.29133 5.156417-4.351869 10.203122-3.199904 15.176688 1.645665 4.42501 4.662717 7.862621 9.032871 10.294548a142.697433 142.697433 0 0 0 35.765785 17.66347c3.108478 1.225106 5.997534 0.329133 8.685453-2.687919l6.290097-12.470483c-6.820367-3.913025-13.713874-7.67977-20.662237-11.281947" fill="#FFFFFF" p-id="15839"></path><path d="M643.016321 397.513652c5.156417-3.36447 9.142583-8.136899 11.921928-14.33557l-9.928845-4.936995c1.554239 7.661484 0.895973 14.079578-1.993083 19.272565" fill="#D2E4EB" p-id="15840"></path><path d="M807.546242 508.852026c-10.733392-23.587864-28.835706-40.519927-54.306942-50.796191-1.517669 1.023969-1.865087 2.541638-1.005684 4.534722 24.044993 8.100328 42.494725 23.533008 55.312626 46.261469M820.345858 466.357301c-13.860156-16.420079-33.827557-24.099848-59.902203-23.039309-1.572524 1.481098-1.718806 2.907341-0.438844 4.205588 24.081563-2.19422 44.195246 4.059307 60.341047 18.833721M743.676158 476.651849c-1.499384 0.786262-2.19422 2.139364-2.011368 4.059307 19.437131 10.367689 33.09615 27.482604 40.958771 51.36303-5.412409-24.684974-18.413162-43.152991-38.947403-55.422337" fill="#663301" p-id="15841"></path><path d="M170.358544 608.637859c5.934592 4.061911 12.387537 5.641052 19.326286 4.697228 6.171267-0.289054 10.960089-3.168731 14.366467-8.639033 3.452415-4.858728 4.197066-10.719103 2.217681-17.601221-1.596462-6.327067-5.581657-11.618187-11.97568-15.857088A29.402546 29.402546 0 0 0 175.696268 566.249447a21.795918 21.795918 0 0 0-15.968603 8.838359c-3.022637 5.142916-3.530883 11.028138-1.508466 17.675763 1.789835 6.586407 5.829585 11.883262 12.12116 15.872378m170.416611 177.574538c-7.113383 10.302271-8.57205 22.081398-4.432467 35.349834 3.612163 12.86367 11.359526 23.293769 23.276549 31.312304 12.083637 8.532466 24.858463 12.063075 38.357026 10.632019 13.602867-1.548795 23.604501-7.318744 29.954168-17.351953 6.638661-10.33378 8.117425-22.129181 4.432467-35.349834-4.05532-13.020563-12.034337-23.69564-23.893037-32.094149-12.371647-8.066318-24.994277-11.470615-37.867888-10.21289-13.530072 1.905777-23.474256 7.828852-29.826818 17.714669m-66.921098-45.515349c9.320929-1.042778 16.551072-5.28382 21.704792-12.684846 4.91442-7.573263 5.925674-16.145114 3.051945-25.713641-2.584626-9.170424-8.268071-16.846344-17.072346-22.993302-9.033962-6.060784-18.43872-8.593678-28.214273-7.598683-9.454886 1.267715-16.683118 5.490573-21.704792 12.684845-5.162293 7.657526-6.312309 16.325108-3.433775 26.022842 2.802846 9.19336 8.499671 16.741985 17.090476 22.645875 9.011026 6.279004 18.561264 8.827189 28.577973 7.63691m324.096026 89.662782c-3.926971 5.875232-4.739447 12.555843-2.475709 20.056196 2.508771 7.618037 7.238733 13.869958 14.151602 18.770126 6.830518 4.63411 14.115221 6.521302 21.888569 5.683584 7.743695-0.730519 13.52876-4.167379 17.373379-10.308668 3.938439-5.984342 4.764294-12.792248 2.493839-20.403623-1.829209-7.436297-6.419425-13.618372-13.807015-18.550049-7.053544-4.786252-14.459808-6.741379-22.214971-5.901749-7.646053 0.851097-13.444497 4.415252-17.409694 10.654183m-47.183792-7.643555c-10.868955-7.669363-22.454056-10.799138-34.759126-9.352956-12.043818 1.234624-21.22052 6.502929-27.513831 15.825011-6.438736 9.656129-7.818111 20.505911-4.118027 32.533071 3.711552 11.91805 11.017559 21.474396 21.936209 28.670948 11.110166 7.823416 22.798643 11.019214 35.103713 9.573032 12.171113-1.221245 21.305656-6.788155 27.423724-16.717004 6.184201-9.33355 7.579904-19.813898 4.207205-31.457316-3.834041-11.802223-11.253964-21.499243-22.261682-29.072875" fill="#F7872E" p-id="15842"></path></svg>